<?xml version="1.0" encoding="utf-8"?>
<!-- Generator: Adobe Illustrator 16.2.1, SVG Export Plug-In . SVG Version: 6.00 Build 0)  -->
<!DOCTYPE svg PUBLIC "-//W3C//DTD SVG 1.1//EN" "http://www.w3.org/Graphics/SVG/1.1/DTD/svg11.dtd">
<svg version="1.1" id="Layer_1" xmlns="http://www.w3.org/2000/svg" xmlns:xlink="http://www.w3.org/1999/xlink" x="0px" y="0px"
	 width="396.667px" height="170px" viewBox="-3.333 -1.428 396.667 170" enable-background="new -3.333 -1.428 396.667 170"
	 xml:space="preserve">
<path fill="#FFFFFF" d="M313.75-0.157v52.028c-4.047-11.202-10.37-21.065-18.872-29.21c-7.654-7.333-16.83-13.023-27.276-16.911
	c-10.622-3.955-22.334-5.959-34.806-5.959L160.629-0.22v52.26c-4.219-10.571-10.569-20.282-18.86-28.573
	C125.715,7.412,104.373-1.428,81.666-1.428c-22.703,0-44.047,8.841-60.103,24.896C5.508,39.523-3.333,60.868-3.333,83.571
	c0,22.705,8.841,44.051,24.896,60.104c16.056,16.055,37.4,24.896,60.104,24.896c22.706,0,44.049-8.841,60.104-24.896
	c8.291-8.29,14.641-17.999,18.86-28.571v52.138l72.167-0.012c12.472,0,24.183-2.007,34.807-5.961
	c10.446-3.889,19.621-9.578,27.274-16.909c8.502-8.145,14.825-18.008,18.873-29.209v52.152h79.583V-0.157H313.75z"/>
</svg>
