<?xml version="1.0" encoding="UTF-8"?>
<svg width="141px" height="117px" viewBox="0 0 141 117" version="1.1" xmlns="http://www.w3.org/2000/svg" xmlns:xlink="http://www.w3.org/1999/xlink">
    <!-- Generator: Sketch 48.2 (47327) - http://www.bohemiancoding.com/sketch -->
    <title>Page 1</title>
    <desc>Created with Sketch.</desc>
    <defs></defs>
    <g id="Icons/-Elements" stroke="none" stroke-width="1" fill="none" fill-rule="evenodd">
        <g id="Page-1" transform="translate(-13.000000, -24.000000)">
            <path d="M132.024222,113.64246 L114.603593,96.2445991 C114.362492,96.0045093 114.104952,95.7947011 113.840837,95.5978707 C131.23626,74.2266318 132.270802,46.5103163 116.101705,33.5757474 C100.103571,20.7774457 73.2482291,27.2404042 55.6445827,47.9303071 C55.3475903,47.6988691 55.0319675,47.4836535 54.6878509,47.2976379 L32.9361746,35.57217 C29.6188467,33.7844741 25.4609538,34.9881677 23.64941,38.2618249 C21.8378662,41.5354821 23.0576171,45.6386389 26.374945,47.4263347 L47.9578507,59.0609579 C47.8296289,59.2956403 47.7090785,59.5303227 47.5841444,59.7660865 C46.7282366,59.3594479 45.7769843,59.1171951 44.7654568,59.0966469 L19.9857737,58.5883486 C16.2070665,58.5115631 13.0793316,61.4715895 13.0015218,65.2005522 C12.922616,68.9295149 15.9221292,72.016075 19.7008364,72.0928605 L42.5714395,72.5622253 C42.3675997,73.3495469 42.1856782,74.1347055 42.0212913,74.9187826 L21.6712875,83.7231577 C18.2092991,85.2210154 16.6333766,89.2041272 18.1512158,92.6205405 C19.6690549,96.0369539 23.7053016,97.5921303 27.1672899,96.0942726 L41.2651115,89.9946933 C41.4492249,91.4806546 41.7155317,92.9352529 42.062936,94.3519991 L31.8435496,104.316808 C29.1552757,106.939411 29.1300697,111.214524 31.7865622,113.867409 C34.4430547,116.521374 38.7762937,116.54733 41.4645676,113.924727 L48.4093667,107.152464 C49.6061034,108.575699 50.9453088,109.89403 52.4335583,111.083664 C53.266452,111.74986 54.1366067,112.352247 55.0264879,112.91462 L49.95022,120.713213 C47.9074387,123.850603 48.8280054,128.029464 52.0083442,130.045353 C55.188683,132.061242 59.4221939,131.151713 61.4660712,128.013241 L68.33854,117.455778 C70.0043274,117.634223 71.7062799,117.683972 73.4279588,117.630979 L70.6421486,130.871608 C69.8739138,134.523785 72.2509485,138.099177 75.95075,138.857299 C79.6516473,139.616502 83.2747349,137.270759 84.0429697,133.618582 L88.0408594,114.621204 C89.1181417,114.216728 90.1921361,113.774401 91.261747,113.289895 L95.9412944,133.082165 C96.7993941,136.713794 100.479469,138.971936 104.16064,138.124051 C107.841811,137.277248 110.128981,133.645619 109.269785,130.012909 L103.638986,106.193186 C103.606108,106.052593 103.561176,105.917407 103.519531,105.78114 C103.791317,105.565924 104.063104,105.350709 104.332698,105.131167 C104.498181,105.340975 104.673527,105.545376 104.867504,105.738962 L122.288133,123.136822 C124.945721,125.789707 129.277864,125.814581 131.966138,123.19306 C134.655508,120.571538 134.680714,116.295344 132.024222,113.64246" id="Fill-1" fill="#FF6701"></path>
            <g id="Group-5" fill="#FF6701" fill-opacity="0.497650589">
                <path d="M149.931094,84.65325 L125.939887,78.6253224 C125.608302,78.5428224 125.278906,78.4939737 124.948415,78.4592368 C128.639623,51.1897303 115.026038,26.8457171 94.4393208,24.0114079 C74.069283,21.2074934 54.4937358,40.5114079 50.2695849,67.3021974 C49.8942264,67.2555197 49.5112075,67.2316382 49.1205283,67.2490066 L24.3939245,68.3117368 C20.6239245,68.4734803 17.6987547,71.6367039 17.8629057,75.3774276 C18.0259623,79.1181513 21.2148679,82.0186776 24.9859623,81.8569342 L49.5221509,80.8018026 C49.5341887,81.0688421 49.5538868,81.332625 49.5713962,81.5985789 C48.6269811,81.6875921 47.6869434,81.9676579 46.8114717,82.467 L25.3635094,94.71825 C22.0936226,96.5875263 20.9686415,100.732066 22.852,103.976704 C24.7364528,107.220257 28.9146415,108.336178 32.1845283,106.467987 L51.9789434,95.1600592 C52.2164151,95.9405526 52.4724906,96.7091053 52.7416981,97.4678882 L39.9521509,115.451803 C37.7766038,118.510816 38.5130943,122.740026 41.5980377,124.899138 C44.6818868,127.057164 48.945434,126.326605 51.1209811,123.266507 L59.9818491,110.806836 C60.9164151,111.990059 61.9046038,113.102724 62.9431321,114.142658 L59.4204528,127.937526 C58.4935472,131.566441 60.7084906,135.253974 64.3668679,136.173414 C68.0263396,137.092855 71.742717,134.89575 72.6696226,131.266836 L75.0629434,121.891145 C76.8313962,122.502296 78.6644151,122.948447 80.558717,123.208974 C81.6202264,123.35552 82.6784528,123.426079 83.7333962,123.454303 L83.4729434,132.754007 C83.3689811,136.495816 86.3423019,139.614533 90.1144906,139.718743 C93.8877736,139.821868 97.030717,136.872493 97.1357736,133.130684 L97.4881509,120.539664 C99.0049057,119.8395 100.485547,119.011243 101.93117,118.084204 L106.474868,130.887987 C107.727887,134.419204 111.630302,136.274368 115.190189,135.030355 C118.750075,133.787428 120.620302,129.916441 119.367283,126.385224 L112.847208,108.015947 C113.555245,107.116046 114.242491,106.18575 114.903472,105.222888 L129.255736,119.831901 C131.889811,122.513151 136.21683,122.568513 138.919849,119.955651 C141.622868,117.342789 141.678679,113.051704 139.044604,110.369368 L121.771547,92.7870987 C121.669774,92.6828882 121.56034,92.5906184 121.453094,92.4940066 C121.573472,92.1705197 121.693849,91.8470329 121.808755,91.5192039 C122.059358,91.6158158 122.316528,91.7015724 122.583547,91.7677895 L146.575849,97.7957171 C150.234226,98.7151579 153.951698,96.5180526 154.878604,92.8891382 C155.804415,89.2602237 153.590566,85.5726908 149.931094,84.65325" id="Fill-3" transform="translate(86.472728, 81.731105) rotate(-24.000000) translate(-86.472728, -81.731105) "></path>
            </g>
            <path d="M109,60.5 C109,62.9855168 106.537854,65 103.5,65 C100.462146,65 98,62.9855168 98,60.5 C98,58.0144832 100.462146,56 103.5,56 C106.537854,56 109,58.0144832 109,60.5" id="Fill-6" fill="#FEFEFE"></path>
            <path d="M82,60.5 C82,62.9855168 79.5366469,65 76.5,65 C73.4621461,65 71,62.9855168 71,60.5 C71,58.0144832 73.4621461,56 76.5,56 C79.5366469,56 82,58.0144832 82,60.5" id="Fill-8" fill="#FEFEFE"></path>
        </g>
    </g>
</svg>